<svg width="127" height="17" viewBox="0 0 127 17" fill="none" xmlns="http://www.w3.org/2000/svg">
<path d="M22.242 15V2.4H27.624C28.416 2.4 29.106 2.538 29.694 2.814C30.282 3.09 30.738 3.48 31.062 3.984C31.398 4.476 31.566 5.07 31.566 5.766V5.964C31.566 6.744 31.38 7.368 31.008 7.836C30.636 8.304 30.186 8.646 29.658 8.862V9.15C30.126 9.174 30.492 9.336 30.756 9.636C31.032 9.936 31.17 10.338 31.17 10.842V15H29.01V11.148C29.01 10.848 28.926 10.608 28.758 10.428C28.602 10.236 28.344 10.14 27.984 10.14H24.42V15H22.242ZM24.42 8.178H27.408C28.032 8.178 28.518 8.016 28.866 7.692C29.226 7.356 29.406 6.912 29.406 6.36V6.198C29.406 5.634 29.232 5.19 28.884 4.866C28.536 4.53 28.044 4.362 27.408 4.362H24.42V8.178ZM33.615 15V2.4H41.643V4.362H35.793V7.674H41.139V9.636H35.793V13.038H41.733V15H33.615ZM43.617 15V2.4H51.465V4.362H45.795V7.692H51.015V9.672H45.795V15H43.617ZM53.2463 15.252C52.7903 15.252 52.4063 15.102 52.0943 14.802C51.7943 14.502 51.6443 14.118 51.6443 13.65C51.6443 13.194 51.7943 12.816 52.0943 12.516C52.4063 12.216 52.7903 12.066 53.2463 12.066C53.7023 12.066 54.0803 12.216 54.3803 12.516C54.6803 12.816 54.8303 13.2 54.8303 13.668C54.8303 14.136 54.6803 14.52 54.3803 14.82C54.0803 15.108 53.7023 15.252 53.2463 15.252Z" fill="#9EFF00"/>
<path d="M57.0643 15V2.4H64.9123V4.362H59.2423V7.692H64.4623V9.672H59.2423V15H57.0643ZM66.6971 15V2.4H68.8751V15H66.6971ZM71.3553 15V2.4H75.4953L78.4653 13.542H78.7533V2.4H80.8953V15H76.7733L73.8033 3.858H73.4973V15H71.3553ZM82.4967 15L85.9527 2.4H89.7147L93.1707 15H90.9387L90.1827 12.12H85.4847L84.7287 15H82.4967ZM85.9887 10.14H89.6787L87.9867 3.75H87.6807L85.9887 10.14ZM94.7693 15V2.4H98.9093L101.879 13.542H102.167V2.4H104.309V15H100.187L97.2173 3.858H96.9113V15H94.7693ZM111.527 15.252C109.991 15.252 108.767 14.82 107.855 13.956C106.943 13.08 106.487 11.826 106.487 10.194V7.206C106.487 5.574 106.943 4.326 107.855 3.462C108.767 2.586 109.991 2.148 111.527 2.148C113.063 2.148 114.245 2.568 115.073 3.408C115.913 4.248 116.333 5.4 116.333 6.864V6.972H114.209V6.81C114.209 6.018 113.987 5.37 113.543 4.866C113.111 4.35 112.439 4.092 111.527 4.092C110.639 4.092 109.937 4.368 109.421 4.92C108.917 5.46 108.665 6.21 108.665 7.17V10.23C108.665 11.178 108.917 11.928 109.421 12.48C109.937 13.032 110.639 13.308 111.527 13.308C112.439 13.308 113.111 13.056 113.543 12.552C113.987 12.036 114.209 11.382 114.209 10.59V10.284H116.333V10.536C116.333 12 115.913 13.152 115.073 13.992C114.245 14.832 113.063 15.252 111.527 15.252ZM118.359 15V2.4H126.387V4.362H120.537V7.674H125.883V9.636H120.537V13.038H126.477V15H118.359Z" fill="white"/>
<path d="M11.5 0H0V3.4375H9.1875C10 3.4375 10.7415 3.79014 10.7415 4.56268V6.56268C10.7415 7.56268 10 7.8125 9.1875 7.8125H3.75L9.6875 16.5625H14.5L10.125 10.3125H11.5C11.5 10.3125 14.5 10.5627 14.5 7.06268V3.06268C14.5 0.562683 12.806 0 11.5 0Z" fill="#9EFF00"/>
<path d="M0 16.5627V9.68774L4.6875 16.5627H0Z" fill="#9EFF00"/>
</svg>
