<svg width="24" height="24" viewBox="0 0 24 24" fill="none" xmlns="http://www.w3.org/2000/svg">
<ellipse cx="12" cy="11.9998" rx="10.6745" ry="10.6745" transform="rotate(-7.64668 12 11.9998)" fill="url(#paint0_linear_2256_8489)"/>
<path d="M13.4869 23.0749C19.6036 22.2537 23.8964 16.6295 23.0752 10.5129C22.2539 4.39622 16.6297 0.103421 10.5131 0.924628C4.39643 1.74583 0.103635 7.37007 0.924842 13.4867C1.74605 19.6034 7.37029 23.8961 13.4869 23.0749Z" stroke="white" stroke-opacity="0.1"/>
<mask id="mask0_2256_8489" style="mask-type:alpha" maskUnits="userSpaceOnUse" x="1" y="1" width="22" height="22">
<ellipse cx="12" cy="11.9998" rx="10.6745" ry="10.6745" transform="rotate(-7.64668 12 11.9998)" fill="#D9D9D9"/>
</mask>
<g mask="url(#mask0_2256_8489)">
<path d="M19.5601 12.4895C19.4681 11.9375 18.7689 10.6312 16.7082 9.8216C14.6475 9.01204 12.5378 9.85227 11.7405 10.3736C11.5914 10.2166 11.3608 10.022 11.0558 9.8216C9.96539 8.62565 7.41667 6.04976 5.94474 5.3138C4.10483 4.39384 5.02479 5.49744 5.02478 7.24571C5.02478 8.64432 4.84079 9.04737 4.7488 9.07407C4.482 9.15603 4.21286 9.25184 3.94231 9.36161C3.01519 8.96297 0.829783 8.11047 -0.494954 7.88968C-2.15088 7.61369 -1.96688 7.80924 -1.6909 8.44166C-1.47011 8.94759 -0.699834 11.2283 -0.342296 12.3055C-0.455221 12.4194 -0.567464 12.5361 -0.678945 12.6555C-1.01626 12.5082 -2.16928 12.2687 -4.08279 12.4895C-6.47467 12.7655 -6.75066 12.9494 -6.47467 13.3174C-6.25388 13.6118 -4.60409 15.5253 -3.8068 16.4453C-4.60409 16.5373 -6.41947 16.8133 -7.30263 17.1812C-8.40658 17.6412 -8.49858 17.6412 -8.22259 17.9172C-8.0018 18.138 -5.77851 19.5425 -4.69446 20.2171C-5.31853 20.7078 -6.47467 21.689 -7.39463 22.609C-8.56735 23.7817 -8.59057 23.9889 -7.76261 24.1729C-7.10024 24.3201 -4.84941 24.4356 -3.8068 24.475C-3.18458 25.5233 -2.33385 26.3632 -1.5069 27.0248C1.33987 29.3022 11.7567 30.518 16.7082 29.3022C19.6811 28.5723 21.4307 26.9328 22.136 26.2888C22.8413 26.0742 24.0679 25.3137 23.3319 23.9889C23.8839 23.7129 24.3991 23.4002 24.2519 22.885C24.1047 22.3698 23.7612 22.3023 23.6079 22.241C23.6999 22.149 24.3439 21.4314 23.6079 20.7691C22.6879 19.9411 21.124 19.2971 21.124 18.5612C21.124 18.3921 21.1386 18.2424 21.151 18.1088C21.1704 18.0382 21.1738 17.9729 21.166 17.9172C21.1827 17.5813 21.1131 17.3616 20.572 17.1812C20.848 16.7213 20.9707 16.1693 20.848 15.4333C20.7008 14.5502 20.2041 14.0841 19.9281 13.8694C20.2041 13.9614 20.8296 14.2006 21.124 14.4214C21.3387 13.9307 21.3264 12.8575 19.5601 12.4895Z" fill="#009400"/>
<path d="M19.5601 12.4895C19.4681 11.9375 18.7689 10.6312 16.7082 9.8216C14.6475 9.01204 12.5378 9.85227 11.7405 10.3736M19.5601 12.4895C21.3264 12.8575 21.3387 13.9307 21.124 14.4214C20.8296 14.2006 20.2041 13.9614 19.9281 13.8694M19.5601 12.4895C18.6708 12.2748 16.5426 12.1583 15.1443 13.4094C13.746 14.6606 13.4577 15.7706 13.4884 16.1693M11.7405 10.3736C13.2124 12.1399 13.4577 13.4401 13.3964 13.8694M11.7405 10.3736C11.5914 10.2166 11.3608 10.022 11.0558 9.8216M20.572 17.1812C20.848 16.7213 20.9707 16.1693 20.848 15.4333C20.7008 14.5502 20.2041 14.0841 19.9281 13.8694M20.572 17.1812C20.3881 17.4879 19.7257 18.1196 18.5481 18.1932C17.0762 18.2852 17.2602 18.1012 17.1682 17.9172C17.0762 17.7332 15.5123 16.2613 14.1324 16.4453C14.4083 15.6173 15.4019 13.9062 17.1682 13.6854C18.9345 13.4646 19.7441 13.7161 19.9281 13.8694M20.572 17.1812C21.1131 17.3616 21.1827 17.5813 21.166 17.9172M13.1204 15.6173C12.8444 15.1267 11.7405 13.9921 10.0845 13.6854C7.60066 13.2254 6.40472 13.5014 5.48476 13.8694C4.52979 14.2514 3.18487 15.4333 2.35691 15.1573C1.65328 14.9228 3.36886 16.3401 5.02478 17.6412C6.31272 18.6532 8.06064 18.9292 10.5445 18.3772C13.0284 17.8252 13.0284 17.2732 12.5684 18.1932C12.2004 18.9292 11.2498 19.3585 10.8205 19.4811M11.0558 9.8216C10.1687 9.23891 8.65224 8.60812 6.68071 8.71765C6.06091 8.75208 5.41212 8.87028 4.7488 9.07407M11.0558 9.8216C9.96539 8.62565 7.41667 6.04976 5.94474 5.3138C4.10483 4.39384 5.02478 5.49744 5.02478 7.24571C5.02478 8.64432 4.84079 9.04737 4.7488 9.07407M4.7488 9.07407C4.482 9.15603 4.21286 9.25184 3.94231 9.36161M3.94231 9.36161C3.01519 8.96297 0.829783 8.11047 -0.494954 7.88968C-2.15087 7.61369 -1.96688 7.80924 -1.6909 8.44166C-1.47011 8.94759 -0.699834 11.2283 -0.342297 12.3055M3.94231 9.36161C2.50687 9.94401 1.0318 10.9194 -0.342297 12.3055M-0.342297 12.3055C-0.455221 12.4194 -0.567464 12.5361 -0.678945 12.6555M-0.678945 12.6555C-1.01626 12.5082 -2.16928 12.2687 -4.08279 12.4895C-6.47467 12.7655 -6.75066 12.9494 -6.47467 13.3174C-6.25388 13.6118 -4.60409 15.5253 -3.8068 16.4453M-0.678945 12.6555C-1.65621 13.7027 -2.57507 14.9638 -3.38295 16.4453M-3.8068 16.4453L-3.38295 16.4453M-3.8068 16.4453C-4.60409 16.5373 -6.41947 16.8133 -7.30263 17.1812C-8.40658 17.6412 -8.49858 17.6412 -8.22259 17.9172C-8.0018 18.138 -5.77851 19.5425 -4.69446 20.2171M-3.38295 16.4453C-3.43266 16.5364 -3.48195 16.6284 -3.53081 16.7213C-4.20626 18.0046 -4.56762 19.1668 -4.69446 20.2171M-4.69446 20.2171C-5.31853 20.7078 -6.47467 21.689 -7.39463 22.609C-8.56735 23.7817 -8.59057 23.9889 -7.76261 24.1729C-7.10024 24.3201 -4.84941 24.4356 -3.8068 24.475M-4.69446 20.2171C-4.89954 21.9153 -4.49155 23.3213 -3.8068 24.475M-3.8068 24.475C-3.18458 25.5233 -2.33385 26.3632 -1.5069 27.0248C1.33987 29.3022 11.7567 30.518 16.7082 29.3022C19.6811 28.5723 21.4307 26.9328 22.136 26.2888C22.8413 26.0742 24.0679 25.3137 23.3319 23.9889C23.8839 23.7129 24.3991 23.4002 24.2519 22.885C24.1047 22.3698 23.7612 22.3023 23.6079 22.241C23.6999 22.149 24.3439 21.4314 23.6079 20.7691C22.6879 19.9411 21.124 19.2971 21.124 18.5612C21.124 18.3062 21.1572 18.0953 21.166 17.9172M21.166 17.9172C21.2134 18.2545 20.848 18.9476 19.0081 19.0212" stroke="black" stroke-width="0.5"/>
<path d="M20.847 15.5204C20.9696 16.2563 20.847 16.8083 20.571 17.2683C20.387 17.5749 19.7246 18.2067 18.5471 18.2802C17.0752 18.3722 17.2592 18.1883 17.1672 18.0043C17.0752 17.8203 15.5112 16.3483 14.1313 16.5323C14.4073 15.7044 15.4008 13.9933 17.1672 13.7725C18.9335 13.5517 19.743 13.8031 19.927 13.9565C20.203 14.1711 20.6998 14.6372 20.847 15.5204Z" fill="#EFF8FF" stroke="black" stroke-width="0.5"/>
<path d="M22.136 26.2892C22.8413 26.0745 24.0679 25.314 23.3319 23.9893C23.8839 23.7133 24.3991 23.4005 24.2519 22.8853C24.1047 22.3701 23.7612 22.3027 23.6079 22.2413C22.6266 22.7013 19.2841 23.5109 13.7644 23.0693C6.86469 22.5173 4.38081 21.6894 2.63289 21.0454C2.17439 20.8765 1.88046 20.8405 1.71294 20.886C1.24181 21.0138 1.77026 21.7859 2.4489 22.0574C2.81688 23.2266 5.57675 25.5532 11.7405 26.4731C16.6714 27.2091 20.7254 26.6571 22.136 26.2892Z" fill="#AC5228"/>
<path d="M23.3319 23.9893C24.0679 25.314 22.8413 26.0745 22.136 26.2892C20.7254 26.6571 16.6714 27.2091 11.7405 26.4731C5.57675 25.5532 2.81688 23.2266 2.4489 22.0574M23.3319 23.9893C23.8839 23.7133 24.3991 23.4005 24.2519 22.8853C24.1047 22.3701 23.7612 22.3027 23.6079 22.2413C22.6266 22.7013 19.2841 23.5109 13.7644 23.0693C6.86469 22.5173 4.38081 21.6894 2.63289 21.0454C2.17439 20.8765 1.88046 20.8405 1.71294 20.886M23.3319 23.9893C22.7186 24.2652 20.0201 24.762 14.1324 24.5412C6.7727 24.2652 3.36886 22.4253 2.4489 22.0574M2.4489 22.0574C1.77026 21.7859 1.24181 21.0138 1.71294 20.886M1.71294 20.886C1.55961 20.8471 1.21616 21.027 1.06897 22.0574" stroke="black" stroke-width="0.5"/>
<path d="M5.481 13.9264C6.40095 13.5584 7.5969 13.2824 10.0808 13.7424C10.6328 13.8957 11.7195 14.2749 12.1047 15.1223C12.5647 16.1343 12.2887 17.1463 11.7367 17.6982C11.2951 18.1398 10.9087 18.3422 10.5408 18.4342C10.5408 18.4342 6.95293 19.3541 5.02102 17.6982C3.3651 16.3971 1.64952 14.9798 2.35315 15.2143C3.18111 15.4903 4.52602 14.3084 5.481 13.9264Z" fill="#EFF8FF" stroke="black" stroke-width="0.5"/>
<path d="M6.59249 13.5928C7.9643 13.5928 8.98437 14.6952 8.98437 16.1686C8.98437 17.2162 8.42231 18.1227 7.60444 18.5592C6.04051 18.4685 5.48854 18.1006 4.10861 16.9046C4.06102 16.6984 4.01661 16.3907 4.01661 16.1686C4.01661 14.6952 5.22068 13.5928 6.59249 13.5928Z" fill="black"/>
<ellipse cx="0.991946" cy="0.660257" rx="0.991946" ry="0.660257" transform="matrix(-0.811569 -0.584256 -0.584256 0.81157 8.4541 14.7205)" fill="#91A2AE"/>
<ellipse cx="0.331479" cy="0.293312" rx="0.331479" ry="0.293312" transform="matrix(-0.63365 -0.77362 -0.77362 0.633649 6.5791 17.1123)" fill="#038203"/>
<path d="M17.2611 13.6999C18.1817 13.9411 18.814 14.9623 18.709 16.1182C18.6233 17.0621 18.07 17.8292 17.3531 18.1176C17.1692 18.0652 17.0772 17.526 16.0652 16.974C15.4256 16.6252 15.0647 16.5099 14.8864 16.4618C14.8491 16.2403 14.8394 16.0073 14.8611 15.7687C14.9015 15.3232 15.0461 14.9171 15.2629 14.5822C15.8722 13.9934 16.8489 13.7487 17.2611 13.6999Z" fill="black"/>
<ellipse cx="0.855263" cy="0.569279" rx="0.855263" ry="0.569279" transform="matrix(-0.811569 -0.584256 -0.584256 0.81157 18.1797 14.7202)" fill="#91A2AE"/>
<ellipse cx="0.181094" cy="0.137717" rx="0.181094" ry="0.137717" transform="matrix(0.264972 -0.964256 -0.964256 -0.264972 16.8057 16.6836)" fill="#038203"/>
<path d="M4.01918 20.309C3.34454 19.9717 1.73769 19.4443 0.707334 20.033C-0.323017 20.6218 -0.335283 21.505 -0.212622 21.8729M10.0909 19.2971C9.47759 19.6651 7.8278 20.2906 6.13508 19.849C4.44236 19.4075 4.01918 19.1131 4.01918 19.0211M2.82323 16.9972C3.06856 17.3345 3.83519 18.1379 4.93913 18.6531M12.9428 14.4213C12.7281 14.084 12.1148 13.3358 11.3788 13.0414M10.9189 13.0414C10.3669 12.704 8.74775 12.103 6.68705 12.3974C4.62635 12.6918 3.43654 13.624 3.09922 14.0533M17.9105 12.3974C17.2359 12.3974 15.5922 12.5814 14.4147 13.3173M18.6465 19.4811C18.1252 19.1131 16.8434 18.2851 15.8866 17.9171" stroke="black" stroke-width="0.5"/>
<ellipse cx="0.551974" cy="0.367983" rx="0.551974" ry="0.367983" transform="matrix(-0.99355 -0.113397 -0.113397 0.99355 16.8994 20.4346)" fill="black"/>
<ellipse cx="0.453678" cy="0.302451" rx="0.453678" ry="0.302451" transform="matrix(-0.999245 0.0388398 0.0388397 0.999245 21.0977 20.3105)" fill="black"/>
</g>
<defs>
<linearGradient id="paint0_linear_2256_8489" x1="12" y1="1.32526" x2="12" y2="22.6743" gradientUnits="userSpaceOnUse">
<stop stop-color="white"/>
<stop offset="1" stop-color="#BFBFBF"/>
</linearGradient>
</defs>
</svg>
