<svg viewBox="0 0 14 14" fill="none" xmlns="http://www.w3.org/2000/svg">
    <path d="M12.9879 1.99954V5.49717C12.9879 5.79769 12.7966 5.98894 12.4961 5.98894H8.99848C8.80723 5.98894 8.64325 5.87967 8.53401 5.68842C8.45201 5.49717 8.47931 5.30592 8.64326 5.14195L9.73622 4.07629C8.97121 3.36572 8.06937 3.0105 7.00371 3.0105C6.48453 3.0105 5.96534 3.1199 5.44615 3.31115C4.92696 3.52968 4.51718 3.83034 4.18924 4.18556C3.83402 4.5135 3.53337 4.92328 3.31483 5.44247C2.90491 6.45356 2.90491 7.5465 3.31483 8.55759C3.53337 9.0768 3.83402 9.48657 4.18924 9.8145C4.51718 10.1697 4.92696 10.4704 5.44615 10.6889C5.96534 10.8802 6.48453 10.9896 7.00371 10.9896C7.63217 10.9896 8.20604 10.8529 8.75253 10.5797C9.32642 10.3337 9.79092 9.9512 10.1461 9.432C10.2554 9.3773 10.3101 9.35003 10.3374 9.35003C10.4194 9.35003 10.4741 9.3773 10.5286 9.432L11.5944 10.4977C11.649 10.5524 11.6763 10.6069 11.6763 10.6616C11.6763 10.6889 11.649 10.7436 11.6217 10.8256C11.0205 11.536 10.3374 12.0825 9.54498 12.4377C8.80726 12.793 7.96012 12.9842 7.00373 12.9842C6.1566 12.9842 5.36418 12.8204 4.68102 12.5198C3.88859 12.1645 3.23285 11.7273 2.76837 11.2354C2.27646 10.7709 1.83926 10.1152 1.48404 9.32272C0.855582 7.92914 0.855582 6.07092 1.48404 4.67733C1.83926 3.8849 2.27646 3.22917 2.76837 2.76468C3.23285 2.27278 3.88859 1.83557 4.68101 1.48035C5.36417 1.1797 6.15659 1.01587 7.00371 1.01587C7.76884 1.01587 8.50658 1.15242 9.217 1.42565C9.95486 1.72631 10.6106 2.13609 11.1298 2.65528L12.1409 1.64432C12.2774 1.50764 12.4688 1.45307 12.6874 1.53492C12.8786 1.64432 12.9879 1.80829 12.9879 1.99954Z" fill="currentColor"/>
    </svg>
    