<svg viewBox="0 0 13 14" fill="none" xmlns="http://www.w3.org/2000/svg">
    <path fill-rule="evenodd" clip-rule="evenodd" d="M9.73335 10.0165C9.73335 10.8358 9.06924 11.4999 8.25002 11.4999C7.4308 11.4999 6.76669 10.8358 6.76669 10.0165C6.76669 9.19733 7.4308 8.53322 8.25002 8.53322C9.06924 8.53322 9.73335 9.19733 9.73335 10.0165ZM11.1741 9.27205C11.2045 9.2684 11.2353 9.26652 11.2667 9.26652L12.2333 9.26652C12.6568 9.26652 13 9.60976 13 10.0332C13 10.4566 12.6568 10.7998 12.2333 10.7998L11.2667 10.7998C11.2325 10.7998 11.1988 10.7976 11.1657 10.7933C10.8231 12.0829 9.64753 13.0332 8.25002 13.0332C6.85251 13.0332 5.67696 12.0829 5.3343 10.7933C5.30128 10.7976 5.26761 10.7998 5.23341 10.7998L0.766754 10.7998C0.343337 10.7998 8.98706e-05 10.4566 8.99077e-05 10.0332C8.99447e-05 9.60976 0.343337 9.26651 0.766754 9.26651L5.23341 9.26652C5.26472 9.26652 5.2956 9.26839 5.32593 9.27204C5.65744 7.96604 6.8409 6.99989 8.25002 6.99989C9.65914 6.99989 10.8426 7.96604 11.1741 9.27205ZM3.26668 3.01657C3.26668 2.19735 3.93079 1.53324 4.75 1.53324C5.56922 1.53324 6.23333 2.19735 6.23333 3.01657C6.23333 3.83579 5.56922 4.49989 4.75001 4.49989C3.93079 4.49989 3.26668 3.83579 3.26668 3.01657ZM4.75 -9.03666e-05C3.3525 -9.04888e-05 2.17694 0.950207 1.83428 2.23986C1.80125 2.23551 1.76757 2.23327 1.73335 2.23327L0.766688 2.23327C0.343271 2.23327 2.38023e-05 2.57652 2.37653e-05 2.99993C2.37283e-05 3.42335 0.343271 3.7666 0.766688 3.7666L1.73335 3.7666C1.76468 3.7666 1.79557 3.76472 1.82592 3.76107C2.15742 5.06707 3.34089 6.03322 4.75001 6.03322C6.15912 6.03322 7.34258 5.06707 7.67409 3.76107C7.70443 3.76472 7.7353 3.7666 7.76662 3.7666L12.2333 3.7666C12.6567 3.7666 12.9999 3.42335 12.9999 2.99993C12.9999 2.57652 12.6567 2.23327 12.2333 2.23327L7.76662 2.23327C7.73242 2.23327 7.69874 2.23551 7.66573 2.23985C7.32307 0.950204 6.14751 -9.02444e-05 4.75 -9.03666e-05Z" fill="currentColor"/>
    </svg>
    